<?xml version="1.0" encoding="utf-8"?>
<!-- Generator: Adobe Illustrator 13.0.0, SVG Export Plug-In . SVG Version: 6.00 Build 14948)  -->
<!DOCTYPE svg PUBLIC "-//W3C//DTD SVG 1.1//EN" "http://www.w3.org/Graphics/SVG/1.1/DTD/svg11.dtd">
<svg version="1.1" id="Layer_1" xmlns="http://www.w3.org/2000/svg" xmlns:xlink="http://www.w3.org/1999/xlink" x="0px" y="0px"
	 width="365px" height="121px" viewBox="0 0 365 121" enable-background="new 0 0 365 121" xml:space="preserve">
<g>
	<g>
		<g>
			<path fill-rule="evenodd" clip-rule="evenodd" fill="#DD4B39" d="M279.19,32.441c1.101,0.19,1.371,0.83,1.371,1.56
				c0,0.74-0.551,1.66-1.371,1.66h-10.56c-1.01-0.19-1.29-1.2-1.29-1.66c0-0.73,0.28-1.37,1.29-1.56H279.19z M274.051,22.251
				c1.101,0.19,1.46,0.83,1.46,1.56c0,0.46-0.359,1.66-1.189,1.66h-5.78c-0.92-0.46-1.2-1.01-1.2-1.66c0-0.55,0.37-1.65,1.381-1.56
				H274.051z M275.421,15.001c2.301,0.28,6.061,2.66,6.801,5.51c0.359,1.28,0.459,2.85,0.909,4.31c0.101,0.37,1.011,0.74,1.38,0.74
				h1.75c0.73-0.19,1.74,0.73,1.74,1.47l-0.09,7.979c-0.09,0.28-0.189,0.55-0.189,0.83c0,2.66-4.311,6.98-6.971,6.98
				c-0.279,0-0.46,0.18-0.74,0.18h-12.21c-3.03-0.18-7.159-3.67-7.62-6.79c0-0.37-0.18-1.01-0.18-1.2v-12.11
				c0.09-0.19,0.09-0.46,0.09-0.74c0.28-3.67,4.87-7.25,7.53-7.16H275.421z"/>
		</g>
	</g>
	<g>
		<g>
			<g>
				<path fill-rule="evenodd" clip-rule="evenodd" fill="#20A997" d="M350.021,38.971v-19.94h-30.039v19.94H350.021z
					 M318.991,41.001l-0.99-1.02v-21.96l0.99-1.02h32.02l0.99,1.02v21.96l-0.99,1.02H318.991z"/>
			</g>
			<g>
				<polygon fill-rule="evenodd" clip-rule="evenodd" fill="#20A997" points="321.371,38.971 331.991,28.051 330.392,26.821 
					318.291,39.271 318.991,41.001 351.011,41.001 351.711,39.271 339.61,26.821 338.011,28.051 348.631,38.971 				"/>
			</g>
			<g>
				<path fill-rule="evenodd" clip-rule="evenodd" fill="#20A997" d="M333.551,27.981h2.9l11.6-8.95h-26.1L333.551,27.981z
					 M333.222,30.021l-0.591-0.21l-14.229-10.98l0.59-0.81l-0.59,0.81l0.59-1.83h32.02l0.59,1.83l-14.229,10.98l-0.591,0.21H333.222
					z"/>
			</g>
		</g>
	</g>
	<g>
		<path fill-rule="evenodd" clip-rule="evenodd" fill="#214285" d="M38.001,15.181v4.59h-3.33c-1.02,0.06-1.91,0.9-1.91,1.79v4.06h5
			c0.061,0.06,0.061,0.12,0.061,0.12l-0.71,5.01h-4.351v13.25h-5.36v-13.25h-4.4v-5.13h4.4v-4.29c0.6-5.55,3.7-6.33,7.21-6.33
			C34.791,15.001,36.871,15.061,38.001,15.181z"/>
	</g>
	<g>
		<g>
			<g>
				<path fill-rule="evenodd" clip-rule="evenodd" fill="#D24C29" d="M152.341,37.041c0,3.09-4.01,4.17-5.87,4.17
					c-1.77,0-5.4-0.9-5.4-3.81c0-3.01,3.96-4.13,5.87-4.13C148.751,33.271,152.341,34.211,152.341,37.041z M147.541,18.751
					c1.86,1.21,2.52,3.36,2.52,4.93c0,1.43-0.75,3.76-2.98,3.76c-2.56,0-4.15-3.31-4.15-4.79v-1.17c0.14-1.7,1.31-3.22,2.94-3.22
					C146.331,18.261,147.121,18.481,147.541,18.751z M163.741,17.001v5.02h5.26v1.48h-5.26v5.07h-1.54v-5.07h-5.26v-1.48h5.26v-5.02
					H163.741z M154.801,17.001c0,0.09-0.09,0.22-0.18,0.31c-0.89,0.59-2.05,0.45-2.94,0.68c-0.09,0-0.23,0.13-0.32,0.22
					c0.05,0.09,0.14,0.09,0.23,0.13c1.86,0.9,1.82,2.6,1.96,3.95c-0.05,0.9,0,0.94,0,0.99c-0.05,0.4-0.19,0.85-0.28,1.25
					c0,0.09-0.14,0.31-0.19,0.49c-0.51,1.66-3.44,2.78-3.44,4.08c0,1.71,5.16,3.01,5.16,7.31c0,5.38-5.35,6.59-8.93,6.59
					c-2.33,0-5.5-0.31-7.26-2.87c-0.19-0.31-0.61-1.43-0.61-1.84v-1.3c0.56-3.85,5.26-4.57,7.82-4.75c0.88-0.09,1.21-0.04,1.49-0.09
					c-0.05-0.22-0.14-0.54-0.28-0.72c-0.23-0.31-0.74-0.67-0.74-0.76v-1.75c-0.1-0.04-0.19,0.05-1.08,0
					c-1.07-0.09-2.04-0.31-3.07-0.8c-0.56-0.27-1.67-1.26-1.91-1.8c-0.09-0.22-0.28-0.49-0.32-0.71c-0.19-0.5-0.33-1.48-0.33-1.57
					v-1.3l0.14-0.9c0.51-3.18,4.7-4.75,6.84-4.84H154.801z"/>
			</g>
		</g>
	</g>
	<g>
		<path fill-rule="evenodd" clip-rule="evenodd" fill="#03679B" d="M207.261,25.511v13.32h-4.119v-13.32H207.261z M222.621,28.951
			c0.069,0.42,0.19,1.22,0.19,1.29v8.62h-4.121v-7.54c-0.14-1.85-0.89-2.51-2.18-2.51c-1.26,0-2.25,0.61-2.43,2.41
			c-0.03,0.19-0.051,0.57-0.051,0.64v7h-4.119v-13.35h3.96v1.76l0.04,0.04c0.99-1.66,2.63-2.15,3.939-2.15
			C219.931,25.161,222.131,25.861,222.621,28.951z M207.621,21.271c0,1.36-1.101,2.39-2.44,2.39c-0.82,0-1.83-0.54-2.22-1.54
			c-0.069-0.19-0.14-0.56-0.14-0.61v-0.52c0.229-1.52,1.31-2.13,2.41-2.13C206.591,18.861,207.621,19.921,207.621,21.271z
			 M225.131,15.001c0.681-0.02,1.66,0.75,1.8,1.55c0,0.04,0.07,0.16,0.07,0.23v24.42c-0.02,0.09-0.07,0.16-0.07,0.23
			c-0.05,0.61-0.939,1.43-1.52,1.5c-0.07,0-0.189,0.07-0.26,0.07h-24.32c-0.54-0.07-1.24-0.42-1.6-1.05
			c-0.11-0.24-0.23-0.66-0.23-0.71v-24.48c0-0.07,0.02-0.07,0.02-0.12c0.051-0.7,0.961-1.59,1.67-1.62c0.041,0,0.09-0.02,0.141-0.02
			H225.131z"/>
	</g>
	<g>
		<path fill-rule="evenodd" clip-rule="evenodd" fill="#2BA8E0" d="M99.131,17.101c0.26,0.05,0.56,0.16,0.81,0.26
			c0.61,0.2,1.36,0.62,2.02,1.28c0.2,0.16,0.3,0.31,0.45,0.31c0.76,0,3.43-1.28,3.63-1.39c0.05,0.06,0.1,0,0.1,0.16
			c0,0.31-1.01,1.8-1.31,2.1c-0.3,0.31-0.7,0.67-1.16,1.03c0.05,0.05,0,0.05,0.15,0.05c0.76,0,2.47-0.72,3.18-0.87
			c-0.81,1.13-1.82,2.21-2.87,3.03c-0.05,0.05-0.16,0.05-0.16,0.2v1.85c-0.1,1.03-0.25,2.05-0.5,3.08
			c-0.3,1.34-0.859,2.77-1.51,4.16c-0.41,0.82-1.67,2.67-1.67,2.77s-0.3,0.26-0.4,0.46c-0.81,1.03-2.27,2.42-3.229,3.13
			c-3.271,2.42-6.95,3.29-10.28,3.29c-3.18,0-6.46-0.82-9.38-2.77c0.45,0,1.26,0.05,1.36,0.05c2.47,0,5.189-0.92,7.609-2.67
			c-0.25-0.05-0.55-0.15-0.85-0.15c-1.62-0.06-4.64-2.26-4.84-4.26c0.399,0.05,0.96,0.1,1.06,0.1c0.15,0,1.11-0.1,1.61-0.21
			c-0.4-0.15-0.86-0.41-1.311-0.56c-1.92-0.62-3.58-3.49-3.58-4.98v-0.77c0.81,0.46,1.76,0.77,2.67,0.77c0-0.05-0.1-0.16-0.15-0.21
			c-1.41-0.92-2.47-3.23-2.47-4.36v-1.34c0.1-0.82,0.3-1.64,0.81-2.46c3.17,3.85,7.16,5.7,10.79,6.31c0.5,0.11,1.51,0.26,1.66,0.26
			h0.35c-0.05-0.31-0.149-0.72-0.149-0.82v-1.23c0.56-3.85,3.28-5.7,6.149-5.7C97.871,17.001,98.681,17.001,99.131,17.101z"/>
	</g>
	<g>
		<g>
			<path fill-rule="evenodd" clip-rule="evenodd" fill="#727272" d="M279.19,93.44c1.101,0.19,1.371,0.83,1.371,1.561
				c0,0.74-0.551,1.66-1.371,1.66h-10.56c-1.01-0.189-1.29-1.2-1.29-1.66c0-0.73,0.28-1.37,1.29-1.561H279.19z M274.051,83.251
				c1.101,0.189,1.46,0.83,1.46,1.561c0,0.459-0.359,1.66-1.189,1.66h-5.78c-0.92-0.461-1.2-1.011-1.2-1.66
				c0-0.551,0.37-1.65,1.381-1.561H274.051z M275.421,76.001c2.301,0.28,6.061,2.66,6.801,5.51c0.359,1.28,0.459,2.85,0.909,4.311
				c0.101,0.369,1.011,0.74,1.38,0.74h1.75c0.73-0.19,1.74,0.729,1.74,1.469l-0.09,7.98c-0.09,0.28-0.189,0.551-0.189,0.83
				c0,2.66-4.311,6.98-6.971,6.98c-0.279,0-0.46,0.18-0.74,0.18h-12.21c-3.03-0.18-7.159-3.67-7.62-6.79c0-0.37-0.18-1.01-0.18-1.2
				V83.901c0.09-0.19,0.09-0.461,0.09-0.74c0.28-3.67,4.87-7.25,7.53-7.16H275.421z"/>
		</g>
	</g>
	<g>
		<g>
			<g>
				<path fill-rule="evenodd" clip-rule="evenodd" fill="#727272" d="M350.021,99.972V80.03h-30.039v19.941H350.021z
					 M318.991,102.001l-0.99-1.02V79.021l0.99-1.02h32.02l0.99,1.02v21.961l-0.99,1.02H318.991z"/>
			</g>
			<g>
				<polygon fill-rule="evenodd" clip-rule="evenodd" fill="#727272" points="321.371,99.972 331.991,89.051 330.392,87.821 
					318.291,100.271 318.991,102.001 351.011,102.001 351.711,100.271 339.61,87.821 338.011,89.051 348.631,99.972 				"/>
			</g>
			<g>
				<path fill-rule="evenodd" clip-rule="evenodd" fill="#727272" d="M333.551,88.981h2.9l11.6-8.951h-26.1L333.551,88.981z
					 M333.222,91.021l-0.591-0.209l-14.229-10.98l0.59-0.811l-0.59,0.811l0.59-1.83h32.02l0.59,1.83l-14.229,10.98l-0.591,0.209
					H333.222z"/>
			</g>
		</g>
	</g>
	<g>
		<path fill-rule="evenodd" clip-rule="evenodd" fill="#727272" d="M38.001,76.181v4.59h-3.33c-1.02,0.061-1.91,0.9-1.91,1.791v4.06
			h5c0.061,0.06,0.061,0.12,0.061,0.12l-0.71,5.01h-4.351v13.25h-5.36v-13.25h-4.4v-5.13h4.4v-4.29c0.6-5.55,3.7-6.33,7.21-6.33
			C34.791,76.001,36.871,76.062,38.001,76.181z"/>
	</g>
	<g>
		<g>
			<g>
				<path fill-rule="evenodd" clip-rule="evenodd" fill="#727272" d="M152.341,98.041c0,3.09-4.01,4.17-5.87,4.17
					c-1.77,0-5.4-0.899-5.4-3.81c0-3.01,3.96-4.131,5.87-4.131C148.751,94.271,152.341,95.211,152.341,98.041z M147.541,79.751
					c1.86,1.21,2.52,3.359,2.52,4.93c0,1.43-0.75,3.76-2.98,3.76c-2.56,0-4.15-3.31-4.15-4.789v-1.17
					c0.14-1.701,1.31-3.221,2.94-3.221C146.331,79.261,147.121,79.481,147.541,79.751z M163.741,78.001v5.02h5.26v1.48h-5.26v5.07
					h-1.54v-5.07h-5.26v-1.48h5.26v-5.02H163.741z M154.801,78.001c0,0.09-0.09,0.221-0.18,0.311c-0.89,0.59-2.05,0.449-2.94,0.68
					c-0.09,0-0.23,0.13-0.32,0.22c0.05,0.09,0.14,0.09,0.23,0.13c1.86,0.9,1.82,2.6,1.96,3.95c-0.05,0.899,0,0.94,0,0.989
					c-0.05,0.4-0.19,0.851-0.28,1.25c0,0.091-0.14,0.311-0.19,0.49c-0.51,1.66-3.44,2.78-3.44,4.08c0,1.711,5.16,3.01,5.16,7.311
					c0,5.38-5.35,6.59-8.93,6.59c-2.33,0-5.5-0.311-7.26-2.87c-0.19-0.31-0.61-1.43-0.61-1.84v-1.3c0.56-3.85,5.26-4.57,7.82-4.75
					c0.88-0.09,1.21-0.04,1.49-0.09c-0.05-0.221-0.14-0.541-0.28-0.721c-0.23-0.31-0.74-0.67-0.74-0.76v-1.75
					c-0.1-0.04-0.19,0.051-1.08,0c-1.07-0.09-2.04-0.311-3.07-0.8c-0.56-0.271-1.67-1.261-1.91-1.8
					c-0.09-0.221-0.28-0.49-0.32-0.711c-0.19-0.5-0.33-1.479-0.33-1.569v-1.3l0.14-0.9c0.51-3.18,4.7-4.75,6.84-4.84H154.801z"/>
			</g>
		</g>
	</g>
	<g>
		<path fill-rule="evenodd" clip-rule="evenodd" fill="#727272" d="M207.261,86.511v13.32h-4.119v-13.32H207.261z M222.621,89.951
			c0.069,0.42,0.19,1.22,0.19,1.29v8.619h-4.121v-7.539c-0.14-1.85-0.89-2.51-2.18-2.51c-1.26,0-2.25,0.609-2.43,2.41
			c-0.03,0.189-0.051,0.569-0.051,0.639v7h-4.119v-13.35h3.96v1.76l0.04,0.041c0.99-1.66,2.63-2.15,3.939-2.15
			C219.931,86.161,222.131,86.86,222.621,89.951z M207.621,82.271c0,1.36-1.101,2.391-2.44,2.391c-0.82,0-1.83-0.54-2.22-1.54
			c-0.069-0.19-0.14-0.56-0.14-0.61v-0.52c0.229-1.52,1.31-2.131,2.41-2.131C206.591,79.86,207.621,80.921,207.621,82.271z
			 M225.131,76.001c0.681-0.02,1.66,0.75,1.8,1.55c0,0.04,0.07,0.16,0.07,0.229v24.421c-0.02,0.09-0.07,0.159-0.07,0.229
			c-0.05,0.61-0.939,1.43-1.52,1.5c-0.07,0-0.189,0.07-0.26,0.07h-24.32c-0.54-0.07-1.24-0.42-1.6-1.05
			c-0.11-0.24-0.23-0.66-0.23-0.71v-24.48c0-0.07,0.02-0.07,0.02-0.119c0.051-0.701,0.961-1.591,1.67-1.621
			c0.041,0,0.09-0.02,0.141-0.02H225.131z"/>
	</g>
	<g>
		<path fill-rule="evenodd" clip-rule="evenodd" fill="#727272" d="M99.131,78.101c0.26,0.051,0.56,0.16,0.81,0.26
			c0.61,0.201,1.36,0.621,2.02,1.281c0.2,0.159,0.3,0.31,0.45,0.31c0.76,0,3.43-1.28,3.63-1.39c0.05,0.06,0.1,0,0.1,0.16
			c0,0.309-1.01,1.799-1.31,2.1c-0.3,0.31-0.7,0.67-1.16,1.029c0.05,0.051,0,0.051,0.15,0.051c0.76,0,2.47-0.721,3.18-0.871
			c-0.81,1.131-1.82,2.211-2.87,3.031c-0.05,0.049-0.16,0.049-0.16,0.199v1.85c-0.1,1.031-0.25,2.051-0.5,3.08
			c-0.3,1.34-0.859,2.771-1.51,4.16c-0.41,0.82-1.67,2.67-1.67,2.771s-0.3,0.26-0.4,0.46c-0.81,1.029-2.27,2.42-3.229,3.13
			c-3.271,2.42-6.95,3.29-10.28,3.29c-3.18,0-6.46-0.82-9.38-2.77c0.45,0,1.26,0.049,1.36,0.049c2.47,0,5.189-0.92,7.609-2.67
			c-0.25-0.049-0.55-0.149-0.85-0.149c-1.62-0.06-4.64-2.26-4.84-4.26c0.399,0.05,0.96,0.1,1.06,0.1c0.15,0,1.11-0.1,1.61-0.21
			c-0.4-0.15-0.86-0.41-1.311-0.561c-1.92-0.619-3.58-3.489-3.58-4.979V86.78c0.81,0.461,1.76,0.771,2.67,0.771
			c0-0.05-0.1-0.159-0.15-0.21c-1.41-0.92-2.47-3.23-2.47-4.359v-1.34c0.1-0.82,0.3-1.641,0.81-2.461
			c3.17,3.85,7.16,5.7,10.79,6.311c0.5,0.109,1.51,0.26,1.66,0.26h0.35c-0.05-0.311-0.149-0.721-0.149-0.82v-1.229
			c0.56-3.851,3.28-5.7,6.149-5.7C97.871,78.001,98.681,78.001,99.131,78.101z"/>
	</g>
</g>
</svg>
